<svg width="170" height="97" viewBox="0 0 170 97" fill="none" xmlns="http://www.w3.org/2000/svg">
<path fill-rule="evenodd" clip-rule="evenodd" d="M69.8676 8.82421C87.1558 10.4796 107.312 3.47279 120.324 14.9467C133.275 26.3674 124.821 48.4484 132.384 63.953C142.073 83.8144 171.621 94.6181 169.93 116.641C168.301 137.863 142.292 147.427 125.015 159.919C107.758 172.396 91.1774 188.595 69.8676 188.99C48.416 189.387 27.6242 177.843 13.2118 161.99C0.206738 147.686 -0.774172 127.145 -3.71247 108.059C-6.17043 92.0925 -4.76702 76.7787 -2.36576 60.8041C0.580489 41.2038 -4.26941 16.1559 11.8452 4.55968C27.9669 -7.04167 50.0788 6.9294 69.8676 8.82421Z" fill="#D9F9E3"/>
</svg>
