<svg width="24" height="24" viewBox="0 0 24 24" fill="none" xmlns="http://www.w3.org/2000/svg">
<path d="M9.82496 22C9.30829 22 8.85829 21.8292 8.47496 21.4875C8.09162 21.1458 7.87496 20.7167 7.82496 20.2L7.04996 11.55C7.03329 11.3833 7.06246 11.2292 7.13746 11.0875C7.21246 10.9458 7.32496 10.8333 7.47496 10.75C7.60829 10.6667 7.72496 10.5667 7.82496 10.45C7.92496 10.3333 7.97496 10.1917 7.97496 10.025C7.97496 9.875 7.94162 9.7375 7.87496 9.6125C7.80829 9.4875 7.70829 9.38333 7.57496 9.3C7.40829 9.21667 7.28329 9.0875 7.19996 8.9125C7.11662 8.7375 7.09996 8.55833 7.14996 8.375L7.79996 5.75C7.84996 5.51667 7.96662 5.33333 8.14996 5.2C8.33329 5.06667 8.54162 5 8.77496 5H11.5V4H11C10.7166 4 10.4791 3.90417 10.2875 3.7125C10.0958 3.52083 9.99996 3.28333 9.99996 3C9.99996 2.71667 10.0958 2.47917 10.2875 2.2875C10.4791 2.09583 10.7166 2 11 2H14C14.2833 2 14.5208 2.09583 14.7125 2.2875C14.9041 2.47917 15 2.71667 15 3C15 3.28333 14.9041 3.52083 14.7125 3.7125C14.5208 3.90417 14.2833 4 14 4H13.5V5H16.225C16.4583 5 16.6625 5.06667 16.8375 5.2C17.0125 5.33333 17.125 5.51667 17.175 5.75L17.85 8.375C17.9 8.55833 17.8833 8.7375 17.8 8.9125C17.7166 9.0875 17.5916 9.21667 17.425 9.3C17.2916 9.36667 17.1875 9.45833 17.1125 9.575C17.0375 9.69167 17 9.825 17 9.975C17 10.1583 17.0458 10.3125 17.1375 10.4375C17.2291 10.5625 17.35 10.6667 17.5 10.75C17.65 10.8333 17.7666 10.9458 17.85 11.0875C17.9333 11.2292 17.9666 11.3833 17.95 11.55L17.175 20.175C17.125 20.6917 16.9083 21.125 16.525 21.475C16.1416 21.825 15.6916 22 15.175 22H9.82496Z" fill="white"/>
</svg>
